<?xml version="1.0" encoding="UTF-8" standalone="no"?>
<svg>
  <path
     id="path198"
     d="M 45.5,123.13038 C 26.354716,117.61929 10.968851,101.69063 6.505569,82.760268 -0.39737892,53.482421 18.114537,23.372526 47.239732,16.505569 81.707224,8.3790389 115,34.753081 115,70.184246 115,94.988622 97.719321,117.14965 73.4477,123.47161 65.808332,125.46141 53.057051,125.30572 45.5,123.13038 Z m 25,-1.63748 C 80.705356,119.34631 89.412457,114.58185 97.09314,106.94134 127.90392,76.291702 110.21447,24.128915 66.927864,17.989769 44.960097,14.874179 22.631526,27.009419 12.926684,47.338591 -3.8192598,82.417078 20.694199,121.74788 60,122.86573 c 1.925,0.0547 6.65,-0.56303 10.5,-1.37283 z M 53.179089,117.25 C 32.619812,104.78168 20.152095,81.140649 18.316781,51.144789 17.781715,42.399812 17.905854,40.819135 19.089665,41.30354 33.800803,47.323208 44.917367,45.647965 55.599413,35.801599 L 60,31.74528 l 4.57433,4.21647 c 10.315881,9.508847 21.967639,11.221949 36.33493,5.342148 1.18168,-0.4836 1.3026,1.01982 0.74881,9.309682 -1.4729,22.04794 -9.295599,41.735104 -21.8243,54.92457 C 73.682648,112.01368 62.194525,121 60.06732,121 c -0.387626,0 -3.48733,-1.6875 -6.888231,-3.75 z m 7.415923,-12.35232 c 1.7343,-1.91394 1.956471,-4.40036 2.479571,-27.749995 C 63.390604,63.041458 63.728104,51.3875 63.824583,51.25 63.921062,51.1125 64.675,51 65.5,51 66.325,51 67,50.55 67,50 67,49.441059 64.27048,49 60.811439,49 h -6.188562 l 2.188562,2.038955 C 58.949677,53.031027 59,53.650504 59,77.979938 c 0,22.738262 -0.756422,30.111012 -2.412379,23.513152 -0.746073,-2.972596 -3.199241,-3.292127 -4.075632,-0.53086 -1.6263,5.12401 4.363462,8.04031 8.083023,3.93545 z M 39,93.059017 C 39,92.541476 38.506884,91.813271 37.904186,91.440784 37.201613,91.006569 37.051053,89.145229 37.484631,86.253918 38.527962,79.296493 38.776283,79 43.559985,79 c 4.170243,0 4.388125,0.15166 5.387434,3.75 1.316375,4.74004 1.335706,7.956985 0.05258,8.75 -2.238206,1.383287 -0.749255,2.5 3.333333,2.5 4.982373,0 6.122621,-0.686903 4.249538,-2.559986 C 55.855831,90.712974 53.124635,81.204045 50.513546,70.309061 47.902458,59.414078 45.399,49.825 44.950306,49 43.881327,47.034499 44.038325,46.522948 38.96567,68.5 36.680592,78.4 34.178511,88.017456 33.405491,89.872124 31.584032,94.242259 31.461109,94 35.5,94 37.425,94 39,93.576558 39,93.059017 Z M 40.022838,74.75 c 0.01256,-0.6875 0.815821,-4.348835 1.785023,-8.136301 l 1.762186,-6.886301 1.727794,7.386301 C 46.248127,71.176165 47.019867,74.8375 47.012817,75.25 47.005768,75.6625 45.425,76 43.5,76 41.354487,76 40.008838,75.516255 40.022838,74.75 Z M 86.05137,91.393074 C 90.391224,87.053221 90.468834,75.420237 86.18111,71.946398 84.306571,70.427679 84.305463,70.340992 86.131757,68.085614 89.686208,63.696053 87.892792,51.324046 83.455198,49.621181 80.950941,48.660208 68,48.887992 68,49.893011 c 0,0.491156 0.675,1.152033 1.5,1.468615 1.2626,0.484506 1.5,3.671736 1.5,20.138374 0,16.466638 -0.2374,19.653868 -1.5,20.138374 -0.825,0.316582 -1.5,1.025107 -1.5,1.5745 0,0.612006 3.090279,0.858559 7.978668,0.636566 6.459652,-0.293349 8.377339,-0.761003 10.072702,-2.456366 z M 76,81.5 c 0,-8.647639 0.169505,-9.5 1.889216,-9.5 1.039069,0 2.935497,0.847227 4.214286,1.882727 1.944251,1.574359 2.325069,2.821978 2.325069,7.617273 0,4.795295 -0.380818,6.042914 -2.325069,7.617273 C 80.824713,90.152773 78.928285,91 77.889216,91 76.169505,91 76,90.147639 76,81.5 Z m 0,-20.958014 v -8.674831 l 2.726829,0.316423 c 3.597941,0.417506 5.47638,4.097445 4.92761,9.653387 -0.488907,4.949872 -1.07884,5.755868 -4.904439,6.70068 L 76,69.216816 Z"
     style="fill:#000000" />
  <path
     id="path200"
     d="M 58.402788,120.15121 C 54.598249,118.16269 49.350224,114.7747 46.404465,112.40542 40.080698,107.31919 34.504307,100.73247 30.262738,93.339153 23.249794,81.115153 19.404519,67.261965 18.339177,50.382716 c -0.237546,-3.763682 -0.170207,-8.621975 0.123569,-8.91507 0.155875,-0.155513 0.701831,-0.02031 2.333333,0.577846 8.69091,3.18633 15.88035,3.6421 22.539256,1.428862 1.740948,-0.578643 5.158832,-2.222738 6.726393,-3.235578 1.930875,-1.247586 4.116669,-3.017416 7.081714,-5.734042 1.518398,-1.391184 2.804922,-2.529425 2.858941,-2.529425 0.05402,0 1.339472,1.13669 2.856559,2.525978 4.418918,4.046668 7.042276,5.950563 10.326369,7.494336 3.606602,1.695377 7.05199,2.536033 11.09864,2.708008 4.759092,0.202252 9.325279,-0.611654 14.919969,-2.659431 1.64002,-0.600281 2.17665,-0.732466 2.33333,-0.574757 0.30467,0.306649 0.22467,7.56872 -0.12484,11.333026 -2.031824,21.883231 -9.804591,40.498412 -22.219044,53.212921 -4.649568,4.76195 -10.780341,9.91014 -15.563736,13.06933 -1.368995,0.90416 -3.230468,1.90293 -3.546584,1.90293 -0.04397,0 -0.800083,-0.3764 -1.680258,-0.83644 z m 0.300916,-13.75949 c 1.017679,-0.45724 2.181879,-1.54071 2.65772,-2.47344 0.981008,-1.92293 1.342389,-7.072943 1.749411,-24.930626 0.281541,-12.352428 0.7016,-27.378877 0.771194,-27.587345 0.03531,-0.105756 0.605114,-0.245585 1.266245,-0.310731 0.952461,-0.09385 1.283015,-0.204627 1.591967,-0.53349 0.214451,-0.228273 0.349279,-0.52093 0.299618,-0.650347 -0.243723,-0.635131 -3.269089,-0.985051 -8.552205,-0.989166 -2.115123,-0.0016 -3.845679,0.03115 -3.845679,0.07288 0,0.04173 0.731556,0.800065 1.62568,1.685185 2.67358,2.646659 2.60468,1.990211 2.599795,24.769804 -0.0037,17.42019 -0.142563,22.805637 -0.680766,26.408446 -0.230952,1.54602 -0.459959,2.07156 -0.765074,1.75575 -0.08725,-0.0903 -0.402277,-0.91791 -0.700059,-1.83912 -0.43283,-1.33898 -0.662217,-1.780974 -1.143674,-2.2037 -1.169546,-1.026874 -2.470535,-0.472292 -3.078622,1.31234 -0.747263,2.1931 0.03705,4.51377 1.837567,5.4371 1.44458,0.7408 2.83412,0.76513 4.366882,0.0765 z M 38.027035,93.756057 c 0.497523,-0.14775 0.950453,-0.388152 1.006508,-0.534229 0.143547,-0.374079 -0.371019,-1.374081 -0.877978,-1.706255 -0.58067,-0.38047 -0.797547,-1.103471 -0.797506,-2.658648 3.1e-5,-1.245737 0.461266,-4.621587 0.887927,-6.4989 0.302956,-1.333013 0.937381,-2.457398 1.575899,-2.792952 0.709506,-0.37286 3.270958,-0.561512 5.532027,-0.40744 1.550464,0.105654 1.729691,0.155641 2.210844,0.616614 1.307142,1.252321 2.774617,8.840469 2.068719,10.69712 -0.09295,0.244468 -0.532012,0.7826 -0.975699,1.195847 -0.677151,0.630693 -0.788852,0.822498 -0.695531,1.194319 0.08226,0.32773 0.324831,0.525396 0.93249,0.759849 0.687182,0.265138 1.329402,0.31689 3.932425,0.31689 3.297049,0 4.2522,-0.164817 4.587655,-0.791621 0.197908,-0.369793 0.032,-0.792536 -0.617764,-1.574106 -0.88292,-1.062018 -2.796371,-7.518522 -5.624905,-18.979952 -4.900022,-19.855264 -5.985264,-23.825924 -6.666511,-24.39131 -0.666901,-0.553478 -0.946141,0.393405 -4.211283,14.280198 -4.518861,19.218915 -6.057739,25.152663 -7.342775,28.312952 -0.841777,2.070184 -0.950842,2.767161 -0.476268,3.043574 0.492786,0.287023 4.508888,0.227739 5.551726,-0.08195 z m 39.346286,0.09107 c 3.479657,-0.223666 5.581632,-0.575004 6.852616,-1.145387 2.035956,-0.913683 3.720077,-3.336481 4.59859,-6.615593 0.39921,-1.490073 0.443462,-1.971027 0.446383,-4.851575 0.0028,-2.749833 -0.04895,-3.38619 -0.369533,-4.544974 -0.629124,-2.274044 -1.30932,-3.480417 -2.736169,-4.852784 -0.828679,-0.797037 -1.276319,-1.361107 -1.276319,-1.608287 0,-0.209384 0.396368,-0.897844 0.880818,-1.529908 1.682601,-2.195291 2.253085,-4.143689 2.250515,-7.686269 -0.0042,-5.842245 -2.10565,-10.804995 -4.896403,-11.563458 -1.563639,-0.42496 -6.342819,-0.61491 -10.120712,-0.402248 -5.050602,0.284303 -5.780158,0.564279 -4.433035,1.701227 1.509413,1.273917 1.58765,1.375962 1.785443,2.328724 0.389554,1.876468 0.524378,6.528364 0.525546,18.133286 0.0016,16.196297 -0.19811,19.313553 -1.290102,20.133709 -1.583756,1.1895 -2.041338,2.012021 -1.257691,2.260741 1.331646,0.422648 4.794952,0.515665 9.040053,0.242796 z"
     style="fill:#01509d;fill-opacity:1;stroke-width:0.17283951" />
  <path
     id="path202"
     d="M 56.197531,124.68814 C 48.905451,124.06188 45.742075,123.37921 40.469882,121.29402 33.391871,118.49463 27.328155,114.53854 21.74298,109.0762 12.972396,100.4985 7.563023,90.098913 5.6877821,78.209877 5.3534414,76.090156 5.3061017,75.115054 5.3059873,70.345679 5.305874,65.624855 5.3550174,64.590823 5.6757371,62.565732 7.0479972,53.900992 9.8389352,46.690423 14.571598,39.5827 c 4.340637,-6.518962 9.233208,-11.385837 15.806279,-15.723266 14.142088,-9.332059 32.391634,-11.316622 48.548049,-5.2794 15.691461,5.863481 28.129364,18.782846 33.257204,34.544565 5.20816,16.008599 2.84739,33.181037 -6.48095,47.143081 -2.17827,3.26029 -4.01765,5.48074 -7.072082,8.53728 -6.110499,6.11471 -12.595594,10.25611 -20.562861,13.13151 -5.416407,1.95478 -9.654179,2.65832 -16.598101,2.75555 -2.471605,0.0346 -4.843827,0.0329 -5.271605,-0.004 z m 7.977971,-2.07234 c 7.476923,-0.95722 13.054469,-2.54807 18.725733,-5.34103 5.762273,-2.83778 10.802419,-6.62318 15.653092,-11.75625 C 109.17375,94.280853 114.17595,79.055333 112.26785,63.777778 111.05114,54.035964 107.09421,44.663752 100.9571,36.987654 99.164106,34.745029 95.381401,30.945417 93.164536,29.160256 86.971703,24.173393 79.021657,20.389184 71.120271,18.667223 66.304008,17.617608 60.202105,17.200131 55.754849,17.615958 40.859471,19.008706 27.264481,26.563831 18.253033,38.45679 13.131443,45.216066 9.4666944,53.935252 8.1545311,62.483193 6.8741125,70.824337 7.5392837,78.665957 10.21429,86.765432 c 1.593327,4.824331 3.514074,8.710757 6.363834,12.876543 8.790679,12.850235 22.893489,21.276735 38.323111,22.898235 1.045679,0.10989 2.05679,0.22271 2.246913,0.2507 1.095763,0.16135 5.19764,0.0591 7.027354,-0.17511 z"
     style="fill:#01509d;fill-opacity:1;stroke-width:0.17283951" />
  <path
     id="path204"
     d="m 41.32324,75.722515 c -1.323412,-0.431095 -1.369003,-0.565121 -0.934868,-2.74832 0.545658,-2.744038 3.079408,-12.661594 3.201291,-12.530433 0.237664,0.255754 3.274535,13.6702 3.274535,14.464253 0,0.275672 -0.144042,0.516809 -0.388889,0.65103 -0.458629,0.251413 -4.489473,0.379308 -5.152069,0.16347 z"
     style="fill:#01509d;fill-opacity:1;stroke-width:0.17283951" />
  <path
     id="path206"
     d="m 76.074074,60.569561 v -8.589535 l 1.253086,0.11652 c 2.460324,0.228778 3.711943,0.791783 4.73129,2.128237 1.299784,1.704131 1.809841,4.365183 1.477275,7.707184 -0.472603,4.749246 -1.007003,5.469123 -4.830822,6.507475 -1.11424,0.30257 -2.162002,0.588271 -2.32836,0.634891 -0.285145,0.07991 -0.302469,-0.407197 -0.302469,-8.504772 z"
     style="fill:#01509d;fill-opacity:1;stroke-width:0.17283951" />
  <path
     id="path208"
     d="m 76.999376,90.669685 c -0.743907,-0.539705 -0.838882,-1.578558 -0.838882,-9.175858 0,-7.736036 0.09016,-8.669218 0.88808,-9.192036 0.83346,-0.546104 2.894073,0.107853 4.770659,1.514017 2.160535,1.618933 2.458319,2.548997 2.458319,7.678019 0,4.202042 -0.157542,5.140071 -1.067091,6.353593 -1.461818,1.950359 -5.12105,3.613083 -6.211085,2.822265 z"
     style="fill:#01509d;fill-opacity:1;stroke-width:0.17283951" />
</svg>
