<?xml version="1.0" encoding="utf-8"?>
<!DOCTYPE svg>
<svg width="100px" height="100px" viewBox="0 0 100 100" version="1.1" xmlns="http://www.w3.org/2000/svg" xmlns:xlink="http://www.w3.org/1999/xlink">
    <title>Red Link</title>
    <desc>Logo Red Link sa</desc>
    <g>
        <circle cx="50" cy="50" r="45" stroke="#f9d322" stroke-width="5" style="fill:#077753" />
        <polyline points="13,37 19,37 19,58 29,58 29,63 13,63" style="fill:#f9d322"/>
        <polyline points="31,37 38,37 38,63 31,63" style="fill:#f9d322"/>
        <polyline points="40,37 48,37 58,55 57,37 63,37 63,63 57,63 46,44 46,63 40,63" style="fill:#f9d322"/>
        <polyline points="66,37 72,37 72,48 87,26 91,33 79,49 88,63 81,63 75,53 72,55 72,63 66,63" style="fill:#f9d322"/>
        <circle cx="34" cy="29" r="4" style="fill:#e72523"/>
    </g>
    Sorry, your browser does not support inline SVG.
</svg>